
<svg width="359" height="500" viewBox="0 0 359 500" fill="none" xmlns="http://www.w3.org/2000/svg">
<path fill-rule="evenodd" clip-rule="evenodd" d="M148.268 8.45672C133.498 14.1251 120.035 23.6064 105.207 38.7874C88.1232 56.2702 75.1344 77.1274 42.8112 138.963C6.49503 208.44 1.80137 219.722 0.294233 241.143C-0.645282 254.578 0.736587 271.677 3.42203 279.824C6.07225 287.853 14.1834 301.002 21.4451 309.039L34.6531 323.656L30.2217 345.715C26.9099 362.204 26.9256 373.427 30.2804 390.135C32.7505 402.426 38.4229 419.604 42.8934 428.302C47.36 436.997 58.0313 451.348 66.6083 460.187C75.1853 469.03 89.7948 480.054 99.0725 484.689C108.354 489.324 125.853 495.106 137.957 497.537C154.312 500.821 165.625 500.821 181.981 497.537C194.085 495.106 211.799 489.218 221.339 484.45C230.879 479.686 246.126 467.782 255.216 457.995C265.539 446.881 286.881 411.207 312.057 362.983C334.225 320.516 354.182 279.178 356.405 271.125C358.629 263.073 359.412 248.929 358.148 239.699C356.883 230.464 352.463 216.313 348.326 208.245C344.188 200.176 336.347 189.415 330.898 184.334C322.728 176.704 321.632 173.408 324.646 165.485C326.654 160.2 328.298 144.608 328.298 130.832C328.298 114.747 325.268 97.6989 319.831 83.1638C313.881 67.2547 304.865 54.0349 289.465 38.6347C274.065 23.2345 260.845 14.2191 244.936 8.26882C229.634 2.54169 213.803 -0.132007 196.03 0.00500565C179.15 0.138104 162.071 3.16021 148.268 8.45672ZM236.304 40.3493C247.069 45.3836 261.522 55.3072 268.42 62.4005C275.318 69.4939 283.996 81.6488 287.711 89.4155C291.422 97.186 295.235 112.665 296.183 123.817C297.232 136.156 295.592 150.711 291.994 161.006C288.741 170.308 261.417 224.533 231.27 281.511C195.384 349.336 173.603 386.38 168.182 388.796C162.728 391.231 156.606 390.992 150.256 388.099C144.952 385.68 139.526 379.381 138.199 374.096C136.328 366.631 148.514 340.375 192.899 256.265C244.161 159.12 250.005 146.06 250.005 128.672C250.005 112.167 248.072 107.184 236.95 95.0487C225.656 82.7254 221.033 80.5723 202.697 79.1004C185.12 77.6872 179.158 78.979 167.798 86.6674C156.704 94.1718 144.33 114.407 102.768 192.997C74.5394 246.381 49.9554 290.123 48.1351 290.205C46.3187 290.284 41.5624 284.431 37.5656 277.197C32.2769 267.614 30.7776 258.724 32.042 244.467C33.4043 229.098 42.0792 209.325 72.4059 152.449C93.6546 112.606 115.032 74.4106 119.918 67.5718C124.843 60.6859 139.522 49.7836 152.84 43.1287C170.284 34.4108 182.341 31.1303 196.805 31.1577C209.434 31.1812 223.899 34.5478 236.304 40.3493ZM212.538 115.561C215.921 118.948 218.688 125.606 218.688 130.367C218.688 135.123 193.188 187.407 162.024 246.545C122.787 321.002 105.328 358.05 105.262 366.995C105.207 374.096 107.638 384.666 110.664 390.483C113.69 396.296 120.877 405.456 126.639 410.839C135.342 418.97 140.987 420.626 160.027 420.626C179.589 420.626 184.557 419.079 193.963 410.06C200.027 404.251 227.825 356.249 255.737 303.386C283.648 250.527 307.825 207.278 309.461 207.278C311.101 207.278 315.435 213.005 319.099 220C322.763 226.996 325.789 240.65 325.82 250.339C325.871 265.195 319.565 279.91 285.562 344.29C263.386 386.275 241.241 425.957 236.351 432.471C231.462 438.985 218.626 449.12 207.833 454.996C197.036 460.872 180.356 466.756 170.765 468.071C159.464 469.617 145.398 468.153 130.785 463.906C113.745 458.954 103.625 452.734 89.3172 438.429C74.9269 424.035 68.7927 414.014 63.7076 396.578C58.1566 377.545 57.7612 370.111 61.3744 352.808C64.146 339.522 85.931 293.568 121.452 226.064C152.1 167.818 179.597 117.746 182.556 114.786C185.512 111.831 192.084 109.411 197.158 109.411C202.231 109.411 209.152 112.179 212.538 115.561Z" fill="black"/>
</svg>
